<svg width="284" height="305" viewBox="0 0 284 305" fill="none" xmlns="http://www.w3.org/2000/svg">
<path d="M172.667 297.617L231.328 279.501L276.186 271.738H282.225L254.62 251.896" stroke="#2D2E2F"/>
<path d="M103.482 219.46L107.537 199.36C111.678 193.322 111.591 179.26 111.591 179.26L103.482 219.46ZM103.482 219.46L93.6481 241.889C100.204 267.769 136.436 297.099 136.436 297.099M103.482 219.46C103.482 219.46 98.8241 216.872 92.0954 221.531C85.3666 226.189 85.8842 227.224 82.0885 230.157C78.2928 233.09 64.4904 241.544 52.5857 243.96C18.597 250.861 2.72531 268.139 1 281.424L136.436 297.099M166.629 304.001C177.326 295.029 198.547 249.333 198.547 249.333L182.182 281.424L166.629 304.001ZM166.629 304.001L136.436 297.099M213.213 228.604C213.213 228.604 231.329 241.889 255.484 252.759M220.976 69.8757C229.258 75.9143 227.36 97.9983 227.705 102.829C228.05 107.66 225.981 108.523 229.604 114.734C229.604 125.086 229.604 134.575 229.604 141.476C229.604 145.962 229.604 150.275 229.604 163.043C229.604 175.637 223.909 202.897 220.976 208.763C218.043 214.457 209.935 231.192 208.037 238.956C206.14 246.72 199.237 249.308 191.473 250.516C183.709 251.896 177.671 249.653 174.565 247.928C171.46 246.203 166.63 236.541 147.652 226.534C128.673 216.355 119.01 203.07 116.94 198.756L111.419 177.19C111.419 177.19 107.623 180.641 103.137 180.641C98.6515 180.641 87.9546 167.183 85.5392 164.595C83.1237 162.007 82.9512 150.793 82.4336 145.962C81.916 141.131 80.3632 132.85 85.5392 128.536L97.6175 125.086L111.591 69.8757L136.436 53.4852L166.629 46.584L220.976 69.8757Z" stroke="#2D2E2F"/>
<path d="M99.3418 180.297C99.3418 180.297 101.067 183.23 101.067 186.335C101.067 189.441 103.31 195.825 105.208 196.687C107.106 197.55 106.243 199.793 107.968 199.275C107.968 199.275 112.627 183.402 111.074 178.227C107.106 182.885 101.067 180.814 99.3418 180.297Z" fill="#2D2E2F"/>
<path d="M139.542 13.457C139.024 13.112 138.334 12.9395 137.816 12.9395C137.816 12.9395 138.506 13.112 139.542 13.457Z" fill="url(#paint0_linear)"/>
<path d="M136.954 9.14586C135.228 8.62827 133.675 8.2832 132.295 8.2832C132.295 8.2832 134.366 8.62827 136.954 9.14586Z" fill="url(#paint1_linear)"/>
<path d="M154.034 9.834C153.344 9.48894 152.826 9.31641 152.309 9.31641C152.136 9.31641 152.826 9.66147 154.034 9.834Z" fill="url(#paint2_linear)"/>
<path d="M135.573 7.5918C135.056 7.5918 134.711 7.76433 134.711 7.76433C134.883 7.76433 135.228 7.5918 135.573 7.5918Z" fill="url(#paint3_linear)"/>
<path d="M102.965 11.043C102.62 11.2155 102.275 11.2155 102.275 11.2155C102.62 11.043 102.792 11.043 102.965 11.043Z" fill="url(#paint4_linear)"/>
<path d="M90.3702 136.299C90.3702 136.644 90.5428 136.989 90.7153 137.161C90.5428 136.989 90.5428 136.816 90.3702 136.299Z" fill="url(#paint5_linear)"/>
<path d="M71.7369 126.467C71.7369 126.467 71.7369 124.742 71.9094 122.326C71.7369 123.534 71.5643 124.914 71.7369 126.467Z" fill="url(#paint6_linear)"/>
<path d="M239.61 93.5098L239.782 94.545L239.61 93.5098Z" fill="url(#paint7_linear)"/>
<path d="M175.083 14.1465C175.083 14.1465 175.256 14.319 175.601 14.4915L175.083 14.1465Z" fill="url(#paint8_linear)"/>
<path d="M216.318 8.8008L216.491 8.2832L216.318 8.8008Z" fill="url(#paint9_linear)"/>
<path d="M242.356 78.8468C240.286 78.6742 240.817 75.0511 240.817 75.0511C251.514 69.5301 244.268 62.9739 244.268 62.9739C237.367 74.0159 240.127 67.9773 238.229 68.1498C236.504 68.3224 233.053 65.2742 239.61 65.2742C246.166 65.2742 236.677 61.0761 236.677 61.0761C234.434 62.6288 234.779 62.1112 234.779 62.1112C237.022 61.4211 236.159 57.4529 236.159 57.4529C234.089 59.1782 233.226 59.6071 233.226 59.6071C234.434 58.7444 233.226 52.7946 233.226 52.7946C232.191 56.0726 231.328 56.0727 231.328 56.0727C233.053 55.21 235.986 46.756 235.986 46.756C234.261 48.9989 230.293 50.2066 230.293 50.2066C236.332 44.8581 239.782 37.2667 241.162 33.6436C237.367 43.4779 227.532 50.8967 227.532 50.8967C227.532 50.8967 227.705 51.2692 228.568 50.0615L229.258 42.2702C228.223 45.0307 225.98 43.9955 225.98 43.9955C226.497 40.5448 223.219 31.2282 223.219 31.2282C224.082 31.0556 229.603 32.4359 229.603 32.4359C228.223 31.5732 222.874 30.0204 222.874 30.0204C222.874 27.4325 219.769 20.8763 219.769 20.8763C220.976 23.4642 220.804 25.7072 220.631 26.9149C220.459 28.1226 221.494 30.193 221.149 30.0204C220.804 29.8479 217.353 30.193 217.353 30.193C216.836 21.5664 214.593 18.6334 214.593 18.6334C217.008 23.4642 216.663 30.538 216.663 30.538L215.283 30.8831V27.0874C214.938 23.2917 213.385 18.9784 213.04 18.2883C213.385 19.151 213.212 25.017 213.212 24.3269C213.212 23.4642 212.005 20.5312 212.005 20.5312L214.765 6.72872C213.902 10.0068 209.244 23.9818 208.554 21.5664C208.036 19.6686 206.656 18.2883 205.966 17.5982C206.829 18.6334 207.864 20.8763 208.209 22.084C208.554 23.6368 206.656 24.4994 206.656 24.4994C202.343 16.3905 198.547 12.5948 196.994 11.2145C200.1 14.1476 203.378 22.4291 203.378 22.4291C202.688 21.2213 199.582 18.6334 196.994 16.3905C199.065 18.8059 200.618 21.7389 200.618 21.7389C200.272 21.3939 198.375 21.5664 198.375 21.5664C201.825 21.9115 201.653 26.3973 201.308 25.7072C200.963 25.017 199.41 23.6368 196.477 22.4291C193.544 21.2213 186.988 18.2883 186.988 18.2883C188.713 15.7003 193.199 18.6334 193.199 18.6334C189.058 15.3553 185.952 18.6334 184.745 17.5982L176.463 14.6652C176.118 14.1476 174.565 12.7673 173.703 12.0772C174.91 13.4574 175.601 15.1827 175.601 15.1827C175.601 15.1827 175.773 16.0454 173.703 14.8377C171.805 13.8025 167.664 12.7673 167.664 12.7673C170.252 13.975 168.699 14.3201 168.699 14.3201C165.421 11.7321 156.277 8.97162 152.481 7.76391C154.034 8.45403 155.759 9.66175 155.759 9.66175C154.724 9.31669 149.721 8.45403 149.721 8.45403C143.51 5.17594 137.299 5.17594 134.538 5.521C140.922 5.17594 149.893 9.14416 148.168 9.14416C146.96 9.14416 140.232 7.93644 135.401 7.07378C139.024 8.10897 142.82 9.48922 142.82 9.48922C141.094 9.31669 136.608 10.5244 136.608 10.5244C139.542 9.83428 143.855 11.042 144.545 11.9047C145.235 12.7673 144.372 15.5278 144.372 15.5278C142.647 13.63 139.887 12.2497 137.989 11.5596C141.094 12.9398 144.372 16.3905 144.372 16.563C144.2 16.7355 141.439 16.2179 141.439 16.2179C125.566 7.41884 111.764 7.24631 111.764 7.24631C107.623 0.172531 103.655 0 103.655 0C109.176 1.03519 110.211 7.24631 110.211 7.24631C106.933 7.07378 103.31 8.2815 101.757 8.79909C105.208 7.59137 109.866 7.41884 110.556 7.76391C111.246 8.10897 111.764 12.2497 111.764 12.2497C111.591 13.2849 111.764 18.6334 111.764 18.6334C104 13.63 97.9615 19.496 97.9615 19.496C106.588 12.7673 112.282 20.8763 112.282 20.8763C103.482 20.5312 95.7186 32.0908 95.7186 32.0908C105.38 19.8411 110.039 22.2565 110.039 22.2565C106.588 24.3269 103.828 30.538 103.828 30.538C102.965 30.7106 98.8241 35.3689 98.8241 35.3689C100.032 33.9887 102.792 33.4711 102.792 33.4711L97.6164 36.2316C95.8911 36.7492 88.2997 43.4779 87.2645 44.8581C86.0568 46.2384 78.3449 57.3074 78.3449 57.3074C81.623 54.5469 91.9229 46.2384 91.9229 46.2384C91.9229 46.2384 90.7152 46.9285 84.6766 50.0341C78.638 53.1396 71.5642 62.1112 71.5642 62.1112C65.8707 66.0795 71.0466 74.5335 68.6312 74.361L59.6595 76.4313C64.4904 75.0511 68.8037 75.7412 68.8037 75.7412L66.5608 78.8468C61.5574 80.227 63.1102 82.1249 63.1102 82.1249C65.008 85.0579 65.008 91.4416 65.008 91.4416C62.5926 92.9943 65.008 95.4098 65.008 95.4098C65.8707 92.3042 66.5608 99.8956 66.5608 99.8956C61.3849 107.314 66.5608 111.455 66.5608 111.455C65.1805 114.561 69.1488 123.532 68.8037 126.81C69.4938 123.015 68.8037 125.853 68.8037 125.853V126.81C69.4938 130.261 71.5642 127.846 71.5642 127.846L70.184 134.229C69.8389 134.919 72.4269 140.095 73.6346 139.405C74.8423 138.715 75.3599 145.961 74.8423 147.514L79.6732 152.518C88.1272 166.493 80.5358 141.303 80.5358 141.303C80.3633 128.018 88.1272 128.363 88.1272 128.363C87.6096 130.779 88.2997 133.022 88.8173 134.229C88.4723 132.504 89.1624 128.536 89.1624 128.536C90.025 128.708 93.3031 130.951 93.3031 130.951C93.8207 134.229 97.6164 140.785 97.6164 140.785C97.6164 140.785 96.5812 123.187 98.6516 131.986L110.039 163.905C110.039 163.905 114.179 154.07 113.662 149.24C113.144 144.409 111.764 136.817 113.662 130.951C116.422 166.493 119.183 111.11 119.183 111.11C119.183 111.11 131.26 109.557 130.397 106.107C129.535 102.656 129.535 95.3235 129.535 95.3235L128.672 84.5403L141.439 76.4313L155.414 74.0159L177.843 72.4631L196.477 80.227L206.656 91.4416C206.656 91.4416 220.286 101.448 223.564 109.557C226.842 117.839 227.532 112.145 227.532 112.145C227.877 114.561 225.807 115.596 227.532 119.909C229.258 124.222 231.328 125.085 231.328 125.085C231.328 120.772 233.744 124.222 233.744 124.222C239.092 124.222 237.367 128.536 237.367 128.536C231.328 142.338 245.476 116.459 245.476 116.459C246.511 117.321 247.891 106.107 247.891 106.107C247.891 104.036 249.444 108.867 248.581 104.381C250.307 104.554 252.895 105.934 252.895 105.934C252.032 102.138 247.891 102.656 247.891 102.656C249.616 103.001 247.891 100.526 247.891 100.526C246.338 96.7301 247.891 98.3428 247.891 98.3428C247.719 97.3076 247.288 98.0206 247.288 98.0206C250.049 99.7459 246.683 95.5823 246.856 96.6175C246.166 93.5119 247.891 97.4801 247.891 97.4801C250.134 97.8252 246.856 93.1813 246.856 93.1813C248.926 94.044 247.891 94.0295 247.891 94.0295C247.546 90.924 246.856 88.5085 246.856 88.5085C248.754 88.5085 246.856 85.748 246.856 85.748C246.166 84.3678 245.131 81.9523 245.131 81.9523C250.997 79.3644 245.476 74.0159 245.476 74.0159C243.06 78.1566 244.427 79.1918 242.356 78.8468ZM127.292 16.7355C127.292 16.7355 117.803 10.1793 115.905 9.83428C115.905 9.83428 122.288 12.5948 122.806 17.9432C122.806 17.9432 117.803 16.3905 115.905 17.9432L112.282 8.45403C112.282 8.45403 126.257 10.3519 129.362 16.7355C129.017 16.0454 127.292 16.7355 127.292 16.7355Z" fill="#2D2E2F"/>
<path d="M242.543 35.5424C243.06 34.3347 243.233 33.6445 243.233 33.6445C242.888 34.3347 242.715 34.8523 242.543 35.5424Z" fill="url(#paint10_linear)"/>
<path d="M208.036 228.603L205.449 219.977H194.234L188.195 226.015L178.706 232.054L166.629 233.779L156.277 232.054L171.805 245.856L182.157 252.757H196.822L206.311 245.856L211.487 238.955V232.054L208.036 228.603Z" fill="#2D2E2F" stroke="#2D2E2F"/>
<path d="M242.37 35.7154C242.543 35.7154 242.543 35.5428 242.37 35.7154C242.543 35.5428 242.543 35.7154 242.37 35.7154Z" fill="url(#paint11_linear)"/>
<path d="M194.406 15.3555C194.406 15.3555 196.304 16.9083 198.547 18.6336C197.339 17.2533 195.959 16.0456 194.406 15.3555Z" fill="url(#paint12_linear)"/>
<path d="M198.375 13.1113C198.375 13.1113 198.547 13.2839 198.72 13.2839C198.547 13.2839 198.547 13.2839 198.375 13.1113Z" fill="url(#paint13_linear)"/>
<path d="M198.375 13.1126C198.03 12.9401 198.03 12.7676 198.03 12.7676C198.202 12.9401 198.202 13.1126 198.375 13.1126Z" fill="url(#paint14_linear)"/>
<path d="M207.691 19.6673L207.346 19.3223C207.346 19.4948 207.519 19.6673 207.691 19.6673Z" fill="url(#paint15_linear)"/>
<defs>
<linearGradient id="paint0_linear" x1="138.017" y1="13.4558" x2="139.125" y2="13.0245" gradientUnits="userSpaceOnUse">
<stop stop-color="#4663FF"/>
<stop offset="1" stop-color="#17A8D3"/>
</linearGradient>
<linearGradient id="paint1_linear" x1="132.929" y1="9.3736" x2="136.098" y2="8.14172" gradientUnits="userSpaceOnUse">
<stop stop-color="#4663FF"/>
<stop offset="1" stop-color="#17A8D3"/>
</linearGradient>
<linearGradient id="paint2_linear" x1="152.439" y1="9.85815" x2="153.604" y2="9.4044" gradientUnits="userSpaceOnUse">
<stop stop-color="#4663FF"/>
<stop offset="1" stop-color="#17A8D3"/>
</linearGradient>
<linearGradient id="paint3_linear" x1="134.732" y1="7.83541" x2="135.422" y2="7.56799" gradientUnits="userSpaceOnUse">
<stop stop-color="#4663FF"/>
<stop offset="1" stop-color="#17A8D3"/>
</linearGradient>
<linearGradient id="paint4_linear" x1="102.414" y1="11.2069" x2="102.934" y2="11.005" gradientUnits="userSpaceOnUse">
<stop stop-color="#4663FF"/>
<stop offset="1" stop-color="#17A8D3"/>
</linearGradient>
<linearGradient id="paint5_linear" x1="90.4436" y1="136.771" x2="90.4936" y2="136.751" gradientUnits="userSpaceOnUse">
<stop stop-color="#4663FF"/>
<stop offset="1" stop-color="#17A8D3"/>
</linearGradient>
<linearGradient id="paint6_linear" x1="71.0773" y1="124.686" x2="72.4472" y2="124.154" gradientUnits="userSpaceOnUse">
<stop stop-color="#4663FF"/>
<stop offset="1" stop-color="#17A8D3"/>
</linearGradient>
<linearGradient id="paint7_linear" x1="239.513" y1="94.0995" x2="239.719" y2="94.0184" gradientUnits="userSpaceOnUse">
<stop stop-color="#4663FF"/>
<stop offset="1" stop-color="#17A8D3"/>
</linearGradient>
<linearGradient id="paint8_linear" x1="175.233" y1="14.3608" x2="175.476" y2="14.2676" gradientUnits="userSpaceOnUse">
<stop stop-color="#4663FF"/>
<stop offset="1" stop-color="#17A8D3"/>
</linearGradient>
<linearGradient id="paint9_linear" x1="216.279" y1="8.591" x2="216.508" y2="8.50128" gradientUnits="userSpaceOnUse">
<stop stop-color="#4663FF"/>
<stop offset="1" stop-color="#17A8D3"/>
</linearGradient>
<linearGradient id="paint10_linear" x1="242.281" y1="34.8298" x2="243.308" y2="34.4295" gradientUnits="userSpaceOnUse">
<stop stop-color="#4663FF"/>
<stop offset="1" stop-color="#17A8D3"/>
</linearGradient>
<linearGradient id="paint11_linear" x1="242.436" y1="35.6805" x2="242.532" y2="35.6425" gradientUnits="userSpaceOnUse">
<stop stop-color="#4663FF"/>
<stop offset="1" stop-color="#17A8D3"/>
</linearGradient>
<linearGradient id="paint12_linear" x1="195.357" y1="17.4298" x2="197.532" y2="16.5844" gradientUnits="userSpaceOnUse">
<stop stop-color="#4663FF"/>
<stop offset="1" stop-color="#17A8D3"/>
</linearGradient>
<linearGradient id="paint13_linear" x1="198.442" y1="13.2388" x2="198.587" y2="13.1819" gradientUnits="userSpaceOnUse">
<stop stop-color="#4663FF"/>
<stop offset="1" stop-color="#17A8D3"/>
</linearGradient>
<linearGradient id="paint14_linear" x1="198.063" y1="12.9939" x2="198.277" y2="12.9111" gradientUnits="userSpaceOnUse">
<stop stop-color="#4663FF"/>
<stop offset="1" stop-color="#17A8D3"/>
</linearGradient>
<linearGradient id="paint15_linear" x1="207.346" y1="19.5619" x2="207.541" y2="19.486" gradientUnits="userSpaceOnUse">
<stop stop-color="#4663FF"/>
<stop offset="1" stop-color="#17A8D3"/>
</linearGradient>
</defs>
</svg>
