<svg width="220" height="39" viewBox="0 0 220 39" fill="none" xmlns="http://www.w3.org/2000/svg">
<rect width="220" height="39" fill="black"/>
<path d="M147.36 27C147.52 27 147.656 26.952 147.768 26.856C147.864 26.744 147.912 26.608 147.912 26.448V10.776C147.912 10.6 147.864 10.464 147.768 10.368C147.656 10.256 147.52 10.2 147.36 10.2H141.504C139.664 10.2 138.224 10.632 137.184 11.496C136.144 12.36 135.624 13.608 135.624 15.24C135.624 16.456 135.928 17.456 136.536 18.24C137.128 19.024 137.968 19.568 139.056 19.872L135.36 26.256C135.312 26.352 135.288 26.44 135.288 26.52C135.288 26.648 135.344 26.76 135.456 26.856C135.552 26.952 135.664 27 135.792 27H136.944C137.184 27 137.376 26.944 137.52 26.832C137.648 26.72 137.768 26.56 137.88 26.352L141.36 20.256H145.56V26.448C145.56 26.608 145.616 26.744 145.728 26.856C145.84 26.952 145.976 27 146.136 27H147.36ZM141.6 18.216C139.216 18.216 138.024 17.216 138.024 15.216C138.024 13.216 139.216 12.216 141.6 12.216H145.56V18.216H141.6Z" fill="white"/>
<path d="M31.64 27C31.48 27 31.344 26.952 31.232 26.856C31.136 26.744 31.088 26.608 31.088 26.448V10.752C31.088 10.592 31.136 10.464 31.232 10.368C31.344 10.256 31.48 10.2 31.64 10.2H32.912C33.072 10.2 33.2 10.256 33.296 10.368C33.408 10.464 33.464 10.592 33.464 10.752V26.448C33.464 26.608 33.408 26.744 33.296 26.856C33.2 26.952 33.072 27 32.912 27H31.64ZM38.2025 27C38.0425 27 37.9065 26.952 37.7945 26.856C37.6985 26.744 37.6505 26.608 37.6505 26.448V10.776C37.6505 10.6 37.6985 10.464 37.7945 10.368C37.9065 10.256 38.0425 10.2 38.2025 10.2H47.9945C48.1705 10.2 48.3065 10.256 48.4025 10.368C48.5145 10.464 48.5705 10.6 48.5705 10.776V11.736C48.5705 11.896 48.5145 12.032 48.4025 12.144C48.3065 12.24 48.1705 12.288 47.9945 12.288H39.9785V17.88H47.5145C47.6905 17.88 47.8265 17.936 47.9225 18.048C48.0345 18.144 48.0905 18.28 48.0905 18.456V19.416C48.0905 19.576 48.0345 19.712 47.9225 19.824C47.8105 19.92 47.6745 19.968 47.5145 19.968H39.9785V26.448C39.9785 26.608 39.9225 26.744 39.8105 26.856C39.6985 26.952 39.5625 27 39.4025 27H38.2025ZM55.8901 27C55.7301 27 55.5941 26.952 55.4821 26.856C55.3861 26.744 55.3381 26.608 55.3381 26.448V12.336H50.7301C50.5701 12.336 50.4341 12.288 50.3221 12.192C50.2261 12.08 50.1781 11.944 50.1781 11.784V10.776C50.1781 10.616 50.2261 10.48 50.3221 10.368C50.4341 10.256 50.5701 10.2 50.7301 10.2H62.2981C62.4741 10.2 62.6101 10.256 62.7061 10.368C62.8181 10.464 62.8741 10.6 62.8741 10.776V11.784C62.8741 11.944 62.8181 12.08 62.7061 12.192C62.5941 12.288 62.4581 12.336 62.2981 12.336H57.7141V26.448C57.7141 26.608 57.6581 26.744 57.5461 26.856C57.4341 26.952 57.2981 27 57.1381 27H55.8901ZM66.1166 27C65.9566 27 65.8206 26.952 65.7086 26.856C65.6126 26.744 65.5646 26.608 65.5646 26.448V10.752C65.5646 10.592 65.6126 10.464 65.7086 10.368C65.8206 10.256 65.9566 10.2 66.1166 10.2H67.3886C67.5486 10.2 67.6766 10.256 67.7726 10.368C67.8846 10.464 67.9406 10.592 67.9406 10.752V26.448C67.9406 26.608 67.8846 26.744 67.7726 26.856C67.6766 26.952 67.5486 27 67.3886 27H66.1166ZM72.6791 27C72.5191 27 72.3831 26.952 72.2711 26.856C72.1751 26.744 72.1271 26.608 72.1271 26.448V10.776C72.1271 10.6 72.1751 10.464 72.2711 10.368C72.3831 10.256 72.5191 10.2 72.6791 10.2H73.8791C74.0551 10.2 74.1911 10.256 74.2871 10.368C74.3991 10.464 74.4551 10.6 74.4551 10.776V16.728L80.8631 10.584C81.1191 10.328 81.4311 10.2 81.7991 10.2H83.0951C83.2231 10.2 83.3351 10.248 83.4311 10.344C83.5271 10.44 83.5751 10.552 83.5751 10.68C83.5751 10.808 83.5431 10.912 83.4791 10.992L76.0631 18.24L83.9591 26.184C84.0391 26.28 84.0791 26.392 84.0791 26.52C84.0791 26.648 84.0311 26.76 83.9351 26.856C83.8391 26.952 83.7271 27 83.5991 27H82.2551C81.9031 27 81.5911 26.864 81.3191 26.592L74.4551 19.848V26.448C74.4551 26.608 74.3991 26.744 74.2871 26.856C74.1751 26.952 74.0391 27 73.8791 27H72.6791ZM87.0931 27C86.9331 27 86.7971 26.952 86.6851 26.856C86.5891 26.744 86.5411 26.608 86.5411 26.448V10.776C86.5411 10.6 86.5891 10.464 86.6851 10.368C86.7971 10.256 86.9331 10.2 87.0931 10.2H88.3171C88.4931 10.2 88.6291 10.256 88.7251 10.368C88.8371 10.464 88.8931 10.6 88.8931 10.776V17.4H97.1491V10.776C97.1491 10.6 97.1971 10.464 97.2931 10.368C97.4051 10.256 97.5411 10.2 97.7011 10.2H98.9251C99.1011 10.2 99.2371 10.256 99.3331 10.368C99.4451 10.464 99.5011 10.6 99.5011 10.776V26.448C99.5011 26.608 99.4451 26.744 99.3331 26.856C99.2211 26.952 99.0851 27 98.9251 27H97.7011C97.5411 27 97.4051 26.952 97.2931 26.856C97.1971 26.744 97.1491 26.608 97.1491 26.448V19.56H88.8931V26.448C88.8931 26.608 88.8371 26.744 88.7251 26.856C88.6131 26.952 88.4771 27 88.3171 27H87.0931ZM102.546 27C102.418 27 102.306 26.952 102.21 26.856C102.114 26.76 102.066 26.648 102.066 26.52C102.066 26.392 102.074 26.304 102.09 26.256L108.042 10.728C108.17 10.376 108.426 10.2 108.81 10.2H110.442C110.826 10.2 111.082 10.376 111.21 10.728L117.138 26.256L117.186 26.52C117.186 26.648 117.138 26.76 117.042 26.856C116.946 26.952 116.834 27 116.706 27H115.482C115.306 27 115.17 26.96 115.074 26.88C114.978 26.784 114.914 26.688 114.882 26.592L113.562 23.184H105.69L104.37 26.592C104.338 26.688 104.266 26.784 104.154 26.88C104.058 26.96 103.93 27 103.77 27H102.546ZM112.866 21.12L109.626 12.6L106.386 21.12H112.866ZM120.304 27C120.144 27 120.008 26.952 119.896 26.856C119.8 26.744 119.752 26.608 119.752 26.448V10.776C119.752 10.6 119.8 10.464 119.896 10.368C120.008 10.256 120.144 10.2 120.304 10.2H126.16C128 10.2 129.44 10.632 130.48 11.496C131.52 12.36 132.04 13.608 132.04 15.24C132.04 16.456 131.736 17.456 131.128 18.24C130.536 19.024 129.696 19.568 128.608 19.872L132.304 26.256C132.352 26.352 132.376 26.44 132.376 26.52C132.376 26.648 132.32 26.76 132.208 26.856C132.112 26.952 132 27 131.872 27H130.72C130.48 27 130.288 26.944 130.144 26.832C130.016 26.72 129.896 26.56 129.784 26.352L126.304 20.256H122.104V26.448C122.104 26.608 122.048 26.744 121.936 26.856C121.824 26.952 121.688 27 121.528 27H120.304ZM126.064 18.216C128.448 18.216 129.64 17.216 129.64 15.216C129.64 13.216 128.448 12.216 126.064 12.216H122.104V18.216H126.064ZM151.366 27C151.238 27 151.126 26.952 151.03 26.856C150.934 26.76 150.886 26.648 150.886 26.52C150.886 26.392 150.894 26.304 150.91 26.256L156.862 10.728C156.99 10.376 157.246 10.2 157.63 10.2H159.262C159.646 10.2 159.902 10.376 160.03 10.728L165.958 26.256L166.006 26.52C166.006 26.648 165.958 26.76 165.862 26.856C165.766 26.952 165.654 27 165.526 27H164.302C164.126 27 163.99 26.96 163.894 26.88C163.798 26.784 163.734 26.688 163.702 26.592L162.382 23.184H154.51L153.19 26.592C153.158 26.688 153.086 26.784 152.974 26.88C152.878 26.96 152.75 27 152.59 27H151.366ZM161.686 21.12L158.446 12.6L155.206 21.12H161.686ZM173.738 27.24C172.41 27.24 171.258 27.032 170.282 26.616C169.322 26.2 168.586 25.656 168.074 24.984C167.562 24.296 167.29 23.56 167.258 22.776C167.258 22.648 167.306 22.536 167.402 22.44C167.514 22.328 167.642 22.272 167.786 22.272H169.01C169.314 22.272 169.522 22.432 169.634 22.752C169.778 23.424 170.186 24 170.858 24.48C171.546 24.96 172.506 25.2 173.738 25.2C175.066 25.2 176.066 24.968 176.738 24.504C177.41 24.024 177.746 23.36 177.746 22.512C177.746 21.968 177.578 21.528 177.242 21.192C176.922 20.856 176.442 20.56 175.802 20.304C175.162 20.048 174.202 19.728 172.922 19.344C171.674 18.992 170.682 18.616 169.946 18.216C169.21 17.816 168.658 17.32 168.29 16.728C167.922 16.136 167.738 15.392 167.738 14.496C167.738 13.632 167.97 12.856 168.434 12.168C168.914 11.48 169.594 10.944 170.474 10.56C171.354 10.16 172.402 9.96 173.618 9.96C174.866 9.96 175.938 10.184 176.834 10.632C177.73 11.064 178.41 11.616 178.874 12.288C179.338 12.96 179.586 13.632 179.618 14.304C179.618 14.432 179.57 14.544 179.474 14.64C179.394 14.736 179.274 14.784 179.114 14.784H177.842C177.506 14.784 177.298 14.632 177.218 14.328C177.122 13.656 176.746 13.104 176.09 12.672C175.434 12.224 174.61 12 173.618 12C172.53 12 171.674 12.208 171.05 12.624C170.426 13.04 170.114 13.656 170.114 14.472C170.114 15.016 170.258 15.464 170.546 15.816C170.85 16.168 171.306 16.48 171.914 16.752C172.522 17.008 173.41 17.304 174.578 17.64C175.938 18.008 177.01 18.392 177.794 18.792C178.578 19.176 179.162 19.664 179.546 20.256C179.93 20.832 180.122 21.568 180.122 22.464C180.122 23.952 179.546 25.12 178.394 25.968C177.242 26.816 175.69 27.24 173.738 27.24ZM183.82 27C183.66 27 183.524 26.952 183.412 26.856C183.316 26.744 183.268 26.608 183.268 26.448V10.776C183.268 10.6 183.316 10.464 183.412 10.368C183.524 10.256 183.66 10.2 183.82 10.2H185.044C185.22 10.2 185.356 10.256 185.452 10.368C185.564 10.464 185.62 10.6 185.62 10.776V17.4H193.876V10.776C193.876 10.6 193.924 10.464 194.02 10.368C194.132 10.256 194.268 10.2 194.428 10.2H195.652C195.828 10.2 195.964 10.256 196.06 10.368C196.172 10.464 196.228 10.6 196.228 10.776V26.448C196.228 26.608 196.172 26.744 196.06 26.856C195.948 26.952 195.812 27 195.652 27H194.428C194.268 27 194.132 26.952 194.02 26.856C193.924 26.744 193.876 26.608 193.876 26.448V19.56H185.62V26.448C185.62 26.608 185.564 26.744 185.452 26.856C185.34 26.952 185.204 27 185.044 27H183.82ZM199.273 27C199.145 27 199.033 26.952 198.937 26.856C198.841 26.76 198.793 26.648 198.793 26.52C198.793 26.392 198.801 26.304 198.817 26.256L204.769 10.728C204.897 10.376 205.153 10.2 205.537 10.2H207.169C207.553 10.2 207.809 10.376 207.937 10.728L213.865 26.256L213.913 26.52C213.913 26.648 213.865 26.76 213.769 26.856C213.673 26.952 213.561 27 213.433 27H212.209C212.033 27 211.897 26.96 211.801 26.88C211.705 26.784 211.641 26.688 211.609 26.592L210.289 23.184H202.417L201.097 26.592C201.065 26.688 200.993 26.784 200.881 26.88C200.785 26.96 200.657 27 200.497 27H199.273ZM209.593 21.12L206.353 12.6L203.113 21.12H209.593Z" fill="white"/>
<path d="M21.108 28H7.198V9.904H14.244C15.752 9.904 16.9827 10.1727 17.936 10.71C18.872 11.23 19.6 11.9407 20.12 12.842C20.64 13.7433 20.9 14.74 20.9 15.832C20.9 17.184 20.484 18.3973 19.652 19.472C18.82 20.5293 17.7713 21.2313 16.506 21.578L21.108 28ZM8.836 10.866L15.908 20.746C17.0693 20.5033 18.0313 19.9227 18.794 19.004C19.5567 18.0853 19.938 17.028 19.938 15.832C19.938 14.8787 19.704 14.012 19.236 13.232C18.768 12.452 18.1093 11.854 17.26 11.438C16.4973 11.0567 15.5007 10.866 14.27 10.866H8.836ZM8.16 11.49V20.824H14.842L8.16 11.49ZM8.16 27.038H19.288L15.492 21.76L14.686 21.786H8.16V27.038Z" fill="white"/>
</svg>
