<svg width="215" height="39" viewBox="0 0 215 39" fill="none" xmlns="http://www.w3.org/2000/svg">
<path d="M152.8 26C152.933 26 153.047 25.96 153.14 25.88C153.22 25.7867 153.26 25.6733 153.26 25.54V12.48C153.26 12.3333 153.22 12.22 153.14 12.14C153.047 12.0467 152.933 12 152.8 12H147.92C146.387 12 145.187 12.36 144.32 13.08C143.453 13.8 143.02 14.84 143.02 16.2C143.02 17.2133 143.273 18.0467 143.78 18.7C144.273 19.3533 144.973 19.8067 145.88 20.06L142.8 25.38C142.76 25.46 142.74 25.5333 142.74 25.6C142.74 25.7067 142.787 25.8 142.88 25.88C142.96 25.96 143.053 26 143.16 26H144.12C144.32 26 144.48 25.9533 144.6 25.86C144.707 25.7667 144.807 25.6333 144.9 25.46L147.8 20.38H151.3V25.54C151.3 25.6733 151.347 25.7867 151.44 25.88C151.533 25.96 151.647 26 151.78 26H152.8ZM148 18.68C146.013 18.68 145.02 17.8467 145.02 16.18C145.02 14.5133 146.013 13.68 148 13.68H151.3V18.68H148Z" fill="white"/>
<path d="M55.2 26C55.0667 26 54.9533 25.96 54.86 25.88C54.78 25.7867 54.74 25.6733 54.74 25.54V12.46C54.74 12.3267 54.78 12.22 54.86 12.14C54.9533 12.0467 55.0667 12 55.2 12H56.26C56.3933 12 56.5 12.0467 56.58 12.14C56.6733 12.22 56.72 12.3267 56.72 12.46V25.54C56.72 25.6733 56.6733 25.7867 56.58 25.88C56.5 25.96 56.3933 26 56.26 26H55.2ZM60.6688 26C60.5354 26 60.4221 25.96 60.3288 25.88C60.2488 25.7867 60.2088 25.6733 60.2088 25.54V12.48C60.2088 12.3333 60.2488 12.22 60.3288 12.14C60.4221 12.0467 60.5354 12 60.6688 12H68.8288C68.9754 12 69.0888 12.0467 69.1688 12.14C69.2621 12.22 69.3088 12.3333 69.3088 12.48V13.28C69.3088 13.4133 69.2621 13.5267 69.1688 13.62C69.0888 13.7 68.9754 13.74 68.8288 13.74H62.1488V18.4H68.4288C68.5754 18.4 68.6888 18.4467 68.7688 18.54C68.8621 18.62 68.9088 18.7333 68.9088 18.88V19.68C68.9088 19.8133 68.8621 19.9267 68.7688 20.02C68.6754 20.1 68.5621 20.14 68.4288 20.14H62.1488V25.54C62.1488 25.6733 62.1021 25.7867 62.0088 25.88C61.9154 25.96 61.8021 26 61.6688 26H60.6688ZM75.4084 26C75.2751 26 75.1618 25.96 75.0684 25.88C74.9884 25.7867 74.9484 25.6733 74.9484 25.54V13.78H71.1084C70.9751 13.78 70.8618 13.74 70.7684 13.66C70.6884 13.5667 70.6484 13.4533 70.6484 13.32V12.48C70.6484 12.3467 70.6884 12.2333 70.7684 12.14C70.8618 12.0467 70.9751 12 71.1084 12H80.7484C80.8951 12 81.0084 12.0467 81.0884 12.14C81.1818 12.22 81.2284 12.3333 81.2284 12.48V13.32C81.2284 13.4533 81.1818 13.5667 81.0884 13.66C80.9951 13.74 80.8818 13.78 80.7484 13.78H76.9284V25.54C76.9284 25.6733 76.8818 25.7867 76.7884 25.88C76.6951 25.96 76.5818 26 76.4484 26H75.4084ZM83.9305 26C83.7971 26 83.6838 25.96 83.5905 25.88C83.5105 25.7867 83.4705 25.6733 83.4705 25.54V12.46C83.4705 12.3267 83.5105 12.22 83.5905 12.14C83.6838 12.0467 83.7971 12 83.9305 12H84.9905C85.1238 12 85.2305 12.0467 85.3105 12.14C85.4038 12.22 85.4505 12.3267 85.4505 12.46V25.54C85.4505 25.6733 85.4038 25.7867 85.3105 25.88C85.2305 25.96 85.1238 26 84.9905 26H83.9305ZM89.3992 26C89.2659 26 89.1526 25.96 89.0592 25.88C88.9792 25.7867 88.9392 25.6733 88.9392 25.54V12.48C88.9392 12.3333 88.9792 12.22 89.0592 12.14C89.1526 12.0467 89.2659 12 89.3992 12H90.3992C90.5459 12 90.6592 12.0467 90.7392 12.14C90.8326 12.22 90.8792 12.3333 90.8792 12.48V17.44L96.2192 12.32C96.4326 12.1067 96.6926 12 96.9992 12H98.0792C98.1859 12 98.2792 12.04 98.3592 12.12C98.4392 12.2 98.4792 12.2933 98.4792 12.4C98.4792 12.5067 98.4526 12.5933 98.3992 12.66L92.2192 18.7L98.7992 25.32C98.8659 25.4 98.8992 25.4933 98.8992 25.6C98.8992 25.7067 98.8592 25.8 98.7792 25.88C98.6992 25.96 98.6059 26 98.4992 26H97.3792C97.0859 26 96.8259 25.8867 96.5992 25.66L90.8792 20.04V25.54C90.8792 25.6733 90.8326 25.7867 90.7392 25.88C90.6459 25.96 90.5326 26 90.3992 26H89.3992ZM101.411 26C101.278 26 101.164 25.96 101.071 25.88C100.991 25.7867 100.951 25.6733 100.951 25.54V12.48C100.951 12.3333 100.991 12.22 101.071 12.14C101.164 12.0467 101.278 12 101.411 12H102.431C102.578 12 102.691 12.0467 102.771 12.14C102.864 12.22 102.911 12.3333 102.911 12.48V18H109.791V12.48C109.791 12.3333 109.831 12.22 109.911 12.14C110.004 12.0467 110.118 12 110.251 12H111.271C111.418 12 111.531 12.0467 111.611 12.14C111.704 12.22 111.751 12.3333 111.751 12.48V25.54C111.751 25.6733 111.704 25.7867 111.611 25.88C111.518 25.96 111.404 26 111.271 26H110.251C110.118 26 110.004 25.96 109.911 25.88C109.831 25.7867 109.791 25.6733 109.791 25.54V19.8H102.911V25.54C102.911 25.6733 102.864 25.7867 102.771 25.88C102.678 25.96 102.564 26 102.431 26H101.411ZM114.288 26C114.182 26 114.088 25.96 114.008 25.88C113.928 25.8 113.888 25.7067 113.888 25.6C113.888 25.4933 113.895 25.42 113.908 25.38L118.868 12.44C118.975 12.1467 119.188 12 119.508 12H120.868C121.188 12 121.402 12.1467 121.508 12.44L126.448 25.38L126.488 25.6C126.488 25.7067 126.448 25.8 126.368 25.88C126.288 25.96 126.195 26 126.088 26H125.068C124.922 26 124.808 25.9667 124.728 25.9C124.648 25.82 124.595 25.74 124.568 25.66L123.468 22.82H116.908L115.808 25.66C115.782 25.74 115.722 25.82 115.628 25.9C115.548 25.9667 115.442 26 115.308 26H114.288ZM122.888 21.1L120.188 14L117.488 21.1H122.888ZM129.087 26C128.953 26 128.84 25.96 128.747 25.88C128.667 25.7867 128.627 25.6733 128.627 25.54V12.48C128.627 12.3333 128.667 12.22 128.747 12.14C128.84 12.0467 128.953 12 129.087 12H133.967C135.5 12 136.7 12.36 137.567 13.08C138.433 13.8 138.867 14.84 138.867 16.2C138.867 17.2133 138.613 18.0467 138.107 18.7C137.613 19.3533 136.913 19.8067 136.007 20.06L139.087 25.38C139.127 25.46 139.147 25.5333 139.147 25.6C139.147 25.7067 139.1 25.8 139.007 25.88C138.927 25.96 138.833 26 138.727 26H137.767C137.567 26 137.407 25.9533 137.287 25.86C137.18 25.7667 137.08 25.6333 136.987 25.46L134.087 20.38H130.587V25.54C130.587 25.6733 130.54 25.7867 130.447 25.88C130.353 25.96 130.24 26 130.107 26H129.087ZM133.887 18.68C135.873 18.68 136.867 17.8467 136.867 16.18C136.867 14.5133 135.873 13.68 133.887 13.68H130.587V18.68H133.887ZM154.972 26C154.865 26 154.772 25.96 154.692 25.88C154.612 25.8 154.572 25.7067 154.572 25.6C154.572 25.4933 154.579 25.42 154.592 25.38L159.552 12.44C159.659 12.1467 159.872 12 160.192 12H161.552C161.872 12 162.085 12.1467 162.192 12.44L167.132 25.38L167.172 25.6C167.172 25.7067 167.132 25.8 167.052 25.88C166.972 25.96 166.879 26 166.772 26H165.752C165.605 26 165.492 25.9667 165.412 25.9C165.332 25.82 165.279 25.74 165.252 25.66L164.152 22.82H157.592L156.492 25.66C156.465 25.74 156.405 25.82 156.312 25.9C156.232 25.9667 156.125 26 155.992 26H154.972ZM163.572 21.1L160.872 14L158.172 21.1H163.572ZM173.615 26.2C172.508 26.2 171.548 26.0267 170.735 25.68C169.935 25.3333 169.322 24.88 168.895 24.32C168.468 23.7467 168.242 23.1333 168.215 22.48C168.215 22.3733 168.255 22.28 168.335 22.2C168.428 22.1067 168.535 22.06 168.655 22.06H169.675C169.928 22.06 170.102 22.1933 170.195 22.46C170.315 23.02 170.655 23.5 171.215 23.9C171.788 24.3 172.588 24.5 173.615 24.5C174.722 24.5 175.555 24.3067 176.115 23.92C176.675 23.52 176.955 22.9667 176.955 22.26C176.955 21.8067 176.815 21.44 176.535 21.16C176.268 20.88 175.868 20.6333 175.335 20.42C174.802 20.2067 174.002 19.94 172.935 19.62C171.895 19.3267 171.068 19.0133 170.455 18.68C169.842 18.3467 169.382 17.9333 169.075 17.44C168.768 16.9467 168.615 16.3267 168.615 15.58C168.615 14.86 168.808 14.2133 169.195 13.64C169.595 13.0667 170.162 12.62 170.895 12.3C171.628 11.9667 172.502 11.8 173.515 11.8C174.555 11.8 175.448 11.9867 176.195 12.36C176.942 12.72 177.508 13.18 177.895 13.74C178.282 14.3 178.488 14.86 178.515 15.42C178.515 15.5267 178.475 15.62 178.395 15.7C178.328 15.78 178.228 15.82 178.095 15.82H177.035C176.755 15.82 176.582 15.6933 176.515 15.44C176.435 14.88 176.122 14.42 175.575 14.06C175.028 13.6867 174.342 13.5 173.515 13.5C172.608 13.5 171.895 13.6733 171.375 14.02C170.855 14.3667 170.595 14.88 170.595 15.56C170.595 16.0133 170.715 16.3867 170.955 16.68C171.208 16.9733 171.588 17.2333 172.095 17.46C172.602 17.6733 173.342 17.92 174.315 18.2C175.448 18.5067 176.342 18.8267 176.995 19.16C177.648 19.48 178.135 19.8867 178.455 20.38C178.775 20.86 178.935 21.4733 178.935 22.22C178.935 23.46 178.455 24.4333 177.495 25.14C176.535 25.8467 175.242 26.2 173.615 26.2ZM182.016 26C181.883 26 181.77 25.96 181.676 25.88C181.596 25.7867 181.556 25.6733 181.556 25.54V12.48C181.556 12.3333 181.596 12.22 181.676 12.14C181.77 12.0467 181.883 12 182.016 12H183.036C183.183 12 183.296 12.0467 183.376 12.14C183.47 12.22 183.516 12.3333 183.516 12.48V18H190.396V12.48C190.396 12.3333 190.436 12.22 190.516 12.14C190.61 12.0467 190.723 12 190.856 12H191.876C192.023 12 192.136 12.0467 192.216 12.14C192.31 12.22 192.356 12.3333 192.356 12.48V25.54C192.356 25.6733 192.31 25.7867 192.216 25.88C192.123 25.96 192.01 26 191.876 26H190.856C190.723 26 190.61 25.96 190.516 25.88C190.436 25.7867 190.396 25.6733 190.396 25.54V19.8H183.516V25.54C183.516 25.6733 183.47 25.7867 183.376 25.88C183.283 25.96 183.17 26 183.036 26H182.016ZM194.894 26C194.787 26 194.694 25.96 194.614 25.88C194.534 25.8 194.494 25.7067 194.494 25.6C194.494 25.4933 194.5 25.42 194.514 25.38L199.474 12.44C199.58 12.1467 199.794 12 200.114 12H201.474C201.794 12 202.007 12.1467 202.114 12.44L207.054 25.38L207.094 25.6C207.094 25.7067 207.054 25.8 206.974 25.88C206.894 25.96 206.8 26 206.694 26H205.674C205.527 26 205.414 25.9667 205.334 25.9C205.254 25.82 205.2 25.74 205.174 25.66L204.074 22.82H197.514L196.414 25.66C196.387 25.74 196.327 25.82 196.234 25.9C196.154 25.9667 196.047 26 195.914 26H194.894ZM203.494 21.1L200.794 14L198.094 21.1H203.494Z" fill="white"/>
<path d="M18.754 28L15.244 22.93H15.036H11.37V28H7.158V9.8H15.036C16.648 9.8 18.0433 10.0687 19.222 10.606C20.418 11.1433 21.3367 11.906 21.978 12.894C22.6193 13.882 22.94 15.052 22.94 16.404C22.94 17.756 22.6107 18.926 21.952 19.914C21.3107 20.8847 20.392 21.63 19.196 22.15L23.278 28H18.754ZM18.676 16.404C18.676 15.3813 18.3467 14.6013 17.688 14.064C17.0293 13.5093 16.0673 13.232 14.802 13.232H11.37V19.576H14.802C16.0673 19.576 17.0293 19.2987 17.688 18.744C18.3467 18.1893 18.676 17.4093 18.676 16.404Z" fill="white"/>
<path d="M25.8944 28L29.4044 22.93H29.6124H33.2784V28H37.4904V9.8H29.6124C28.0004 9.8 26.6051 10.0687 25.4264 10.606C24.2304 11.1433 23.3118 11.906 22.6704 12.894C22.0291 13.882 21.7084 15.052 21.7084 16.404C21.7084 17.756 22.0378 18.926 22.6964 19.914C23.3378 20.8847 24.2564 21.63 25.4524 22.15L21.3704 28H25.8944ZM25.9724 16.404C25.9724 15.3813 26.3018 14.6013 26.9604 14.064C27.6191 13.5093 28.5811 13.232 29.8464 13.232H33.2784V19.576H29.8464C28.5811 19.576 27.6191 19.2987 26.9604 18.744C26.3018 18.1893 25.9724 17.4093 25.9724 16.404Z" fill="white"/>
</svg>
